<svg width="286" height="265" viewBox="0 0 286 265" fill="none" xmlns="http://www.w3.org/2000/svg">
<path d="M16 0H268C272.243 0 276.313 1.68571 279.314 4.68629C282.314 7.68687 284 11.7565 284 16V57C284 61.2435 282.314 65.3131 279.314 68.3137C276.313 71.3143 272.243 73 268 73H16C11.7565 73 7.68687 71.3143 4.68629 68.3137C1.68571 65.3131 0 61.2435 0 57V16C0 11.7565 1.68571 7.68687 4.68629 4.68629C7.68687 1.68571 11.7565 0 16 0Z" fill="white"/>
<path d="M16 1C12.0218 1 8.20644 2.58035 5.3934 5.3934C2.58035 8.20644 1 12.0218 1 16V57C1 60.9782 2.58035 64.7936 5.3934 67.6066C8.20644 70.4197 12.0218 72 16 72H268C271.978 72 275.794 70.4197 278.607 67.6066C281.42 64.7936 283 60.9782 283 57V16C283 12.0218 281.42 8.20644 278.607 5.3934C275.794 2.58035 271.978 1 268 1H16ZM16 0H268C272.243 0 276.313 1.68571 279.314 4.68629C282.314 7.68687 284 11.7565 284 16V57C284 61.2435 282.314 65.3131 279.314 68.3137C276.313 71.3143 272.243 73 268 73H16C11.7565 73 7.68687 71.3143 4.68629 68.3137C1.68571 65.3131 0 61.2435 0 57V16C0 11.7565 1.68571 7.68687 4.68629 4.68629C7.68687 1.68571 11.7565 0 16 0Z" fill="#E5C3AC"/>
<path d="M21.9238 16.5938H49.6688C51.3041 16.5938 52.8725 17.2434 54.0288 18.3997C55.1852 19.5561 55.8348 21.1244 55.8348 22.7597V50.5047C55.8348 52.1401 55.1852 53.7084 54.0288 54.8648C52.8725 56.0211 51.3041 56.6707 49.6688 56.6707H21.9238C20.2885 56.6707 18.7201 56.0211 17.5638 54.8648C16.4074 53.7084 15.7578 52.1401 15.7578 50.5047V22.7597C15.7578 21.1244 16.4074 19.5561 17.5638 18.3997C18.7201 17.2434 20.2885 16.5938 21.9238 16.5938Z" fill="#2C2E4B"/>
<path d="M88 16H260C262.122 16 264.157 16.8429 265.657 18.3431C267.157 19.8434 268 21.8783 268 24C268 26.1217 267.157 28.1566 265.657 29.6569C264.157 31.1571 262.122 32 260 32H88C85.8783 32 83.8434 31.1571 82.3431 29.6569C80.8429 28.1566 80 26.1217 80 24C80 21.8783 80.8429 19.8434 82.3431 18.3431C83.8434 16.8429 85.8783 16 88 16Z" fill="#CA7C4C"/>
<path d="M87.8978 40.6367H135.99C140.417 40.6367 144.005 43.5077 144.005 47.0487V50.2547C144.005 53.7957 140.416 56.6667 135.99 56.6667H87.8978C83.4718 56.6677 79.8828 53.7967 79.8828 50.2547V47.0487C79.8828 43.5077 83.4718 40.6367 87.8978 40.6367Z" fill="#E5C3AC"/>
<path d="M16 97H268C272.243 97 276.313 98.6857 279.314 101.686C282.314 104.687 284 108.757 284 113V153C284 157.243 282.314 161.313 279.314 164.314C276.313 167.314 272.243 169 268 169H16C11.7565 169 7.68687 167.314 4.68629 164.314C1.68571 161.313 0 157.243 0 153V113C0 108.757 1.68571 104.687 4.68629 101.686C7.68687 98.6857 11.7565 97 16 97Z" fill="white"/>
<path d="M16 98C12.0218 98 8.20644 99.5804 5.3934 102.393C2.58035 105.206 1 109.022 1 113V153C1 156.978 2.58035 160.794 5.3934 163.607C8.20644 166.42 12.0218 168 16 168H268C271.978 168 275.794 166.42 278.607 163.607C281.42 160.794 283 156.978 283 153V113C283 109.022 281.42 105.206 278.607 102.393C275.794 99.5804 271.978 98 268 98H16ZM16 97H268C272.243 97 276.313 98.6857 279.314 101.686C282.314 104.687 284 108.757 284 113V153C284 157.243 282.314 161.313 279.314 164.314C276.313 167.314 272.243 169 268 169H16C11.7565 169 7.68687 167.314 4.68629 164.314C1.68571 161.313 0 157.243 0 153V113C0 108.757 1.68571 104.687 4.68629 101.686C7.68687 98.6857 11.7565 97 16 97Z" fill="#E5C3AC"/>
<path d="M21.9238 112.789H49.6688C51.3041 112.789 52.8725 113.439 54.0288 114.595C55.1852 115.751 55.8348 117.32 55.8348 118.955V146.7C55.8348 148.335 55.1852 149.904 54.0288 151.06C52.8725 152.216 51.3041 152.866 49.6688 152.866H21.9238C20.2885 152.866 18.7201 152.216 17.5638 151.06C16.4074 149.904 15.7578 148.335 15.7578 146.7V118.955C15.7578 117.32 16.4074 115.751 17.5638 114.595C18.7201 113.439 20.2885 112.789 21.9238 112.789Z" fill="#2C2E4B"/>
<path d="M88 113H260C262.122 113 264.157 113.843 265.657 115.343C267.157 116.843 268 118.878 268 121C268 123.122 267.157 125.157 265.657 126.657C264.157 128.157 262.122 129 260 129H88C85.8783 129 83.8434 128.157 82.3431 126.657C80.8429 125.157 80 123.122 80 121C80 118.878 80.8429 116.843 82.3431 115.343C83.8434 113.843 85.8783 113 88 113Z" fill="#CA7C4C"/>
<path d="M87.8978 136.834H135.99C140.417 136.834 144.005 139.705 144.005 143.246V146.452C144.005 149.993 140.416 152.864 135.99 152.864H87.8978C83.4718 152.865 79.8828 149.994 79.8828 146.452V143.246C79.8828 139.705 83.4718 136.834 87.8978 136.834Z" fill="#E5C3AC"/>
<path d="M18 193H270C274.243 193 278.313 194.686 281.314 197.686C284.314 200.687 286 204.757 286 209V249C286 253.243 284.314 257.313 281.314 260.314C278.313 263.314 274.243 265 270 265H18C13.7565 265 9.68687 263.314 6.68629 260.314C3.68571 257.313 2 253.243 2 249V209C2 204.757 3.68571 200.687 6.68629 197.686C9.68687 194.686 13.7565 193 18 193Z" fill="white"/>
<path d="M18 194C14.0218 194 10.2064 195.58 7.3934 198.393C4.58035 201.206 3 205.022 3 209V249C3 252.978 4.58035 256.794 7.3934 259.607C10.2064 262.42 14.0218 264 18 264H270C273.978 264 277.794 262.42 280.607 259.607C283.42 256.794 285 252.978 285 249V209C285 205.022 283.42 201.206 280.607 198.393C277.794 195.58 273.978 194 270 194H18ZM18 193H270C274.243 193 278.313 194.686 281.314 197.686C284.314 200.687 286 204.757 286 209V249C286 253.243 284.314 257.313 281.314 260.314C278.313 263.314 274.243 265 270 265H18C13.7565 265 9.68687 263.314 6.68629 260.314C3.68571 257.313 2 253.243 2 249V209C2 204.757 3.68571 200.687 6.68629 197.686C9.68687 194.686 13.7565 193 18 193Z" fill="#E5C3AC"/>
<path d="M23.9238 208.971H51.6688C53.3041 208.971 54.8725 209.62 56.0288 210.777C57.1852 211.933 57.8348 213.501 57.8348 215.137V242.882C57.8348 244.517 57.1852 246.085 56.0288 247.242C54.8725 248.398 53.3041 249.048 51.6688 249.048H23.9238C22.2885 249.048 20.7201 248.398 19.5638 247.242C18.4074 246.085 17.7578 244.517 17.7578 242.882V215.137C17.7578 213.501 18.4074 211.933 19.5638 210.777C20.7201 209.62 22.2885 208.971 23.9238 208.971Z" fill="#2C2E4B"/>
<path d="M90 209H262C264.122 209 266.157 209.843 267.657 211.343C269.157 212.843 270 214.878 270 217C270 219.122 269.157 221.157 267.657 222.657C266.157 224.157 264.122 225 262 225H90C87.8783 225 85.8434 224.157 84.3431 222.657C82.8429 221.157 82 219.122 82 217C82 214.878 82.8429 212.843 84.3431 211.343C85.8434 209.843 87.8783 209 90 209Z" fill="#CA7C4C"/>
<path d="M89.8978 233.016H137.99C142.417 233.016 146.005 235.887 146.005 239.428V242.634C146.005 246.175 142.416 249.046 137.99 249.046H89.8978C85.4718 249.047 81.8828 246.176 81.8828 242.634V239.428C81.8828 235.887 85.4718 233.016 89.8978 233.016Z" fill="#E5C3AC"/>
</svg>
