<svg width="403" height="222" viewBox="0 0 403 222" fill="none" xmlns="http://www.w3.org/2000/svg">
<path d="M235.888 88.2373C221.872 88.2373 207.64 87.6687 194.31 83.9558C181.232 80.3265 169.223 73.2855 158.52 65.1405C151.495 59.8388 145.14 55.6075 136.025 56.243C127.123 56.7366 118.615 60.0787 111.757 65.7761C100.167 75.9112 101.923 94.6596 106.539 107.839C113.513 127.691 134.67 141.489 152.683 150.47C173.471 160.856 196.301 166.843 219.213 170.355C239.283 173.416 265.056 175.624 282.449 162.528C298.438 150.486 302.82 122.974 298.906 104.41C297.951 98.9239 295.025 93.9756 290.678 90.4951C279.455 82.2833 262.714 87.769 250.104 88.0366C245.421 88.2373 240.671 88.2373 235.888 88.2373Z" fill="#EBE3D9"/>
<path d="M198.225 212C232.401 212 260.106 205.636 260.106 197.784C260.106 189.933 232.401 183.568 198.225 183.568C164.049 183.568 136.344 189.933 136.344 197.784C136.344 205.636 164.049 212 198.225 212Z" fill="#EBE3D9"/>
<path d="M233.08 13.278C233.986 13.278 234.719 12.5442 234.719 11.639C234.719 10.7338 233.986 10 233.08 10C232.175 10 231.441 10.7338 231.441 11.639C231.441 12.5442 232.175 13.278 233.08 13.278Z" fill="#EBE3D9"/>
<path d="M158.17 172.346C159.075 172.346 159.809 171.613 159.809 170.707C159.809 169.802 159.075 169.068 158.17 169.068C157.265 169.068 156.531 169.802 156.531 170.707C156.531 171.613 157.265 172.346 158.17 172.346Z" fill="#EBE3D9"/>
<path d="M252.398 180.725V187.916" stroke="#EBE3D9" stroke-linecap="round" stroke-linejoin="round"/>
<path d="M248.785 184.32H255.993" stroke="#EBE3D9" stroke-linecap="round" stroke-linejoin="round"/>
<path d="M198.977 19.4648C181.234 19.4648 164.218 26.5131 151.672 39.059C139.126 51.6049 132.078 68.6208 132.078 86.3635C132.078 135.467 198.977 181.443 198.977 181.443C198.977 181.443 265.875 136.169 265.875 86.3635C265.875 68.6208 258.827 51.6049 246.281 39.059C233.735 26.5131 216.719 19.4648 198.977 19.4648ZM198.977 111.45C193.766 111.45 188.673 109.906 184.34 107.013C180.007 104.12 176.628 100.007 174.632 95.1946C172.635 90.3822 172.109 85.0859 173.12 79.9747C174.132 74.8636 176.636 70.167 180.315 66.4781C183.995 62.7892 188.685 60.2736 193.794 59.249C198.902 58.2244 204.2 58.7368 209.017 60.7216C213.835 62.7063 217.956 66.0743 220.86 70.4C223.764 74.7258 225.322 79.8152 225.335 85.0255C225.33 92.0147 222.552 98.7164 217.61 103.659C212.668 108.601 205.966 111.379 198.977 111.384V111.45Z" fill="#2C2E4B" stroke="#EBE3D9" stroke-linecap="round" stroke-linejoin="round"/>
<path d="M128.199 31.8594V39.051" stroke="#EBE3D9" stroke-linecap="round" stroke-linejoin="round"/>
<path d="M124.586 35.4551H131.794" stroke="#EBE3D9" stroke-linecap="round" stroke-linejoin="round"/>
<path d="M277.918 51.4277V58.6193" stroke="#EBE3D9" stroke-linecap="round" stroke-linejoin="round"/>
<path d="M274.305 55.0234H281.513" stroke="#EBE3D9" stroke-linecap="round" stroke-linejoin="round"/>
<path d="M188.626 200.481V195.061C188.626 194.607 188.653 194.204 188.708 193.852C188.762 193.501 188.862 193.174 189.008 192.871C189.159 192.568 189.376 192.265 189.657 191.962L190.468 191.078L191.32 188.636C191.552 187.97 191.885 187.484 192.318 187.175C192.751 186.867 193.248 186.68 193.811 186.616C193.989 186.594 194.292 186.575 194.719 186.559C195.152 186.543 195.668 186.529 196.269 186.518C196.875 186.507 197.526 186.502 198.224 186.502C198.922 186.502 199.571 186.507 200.171 186.518C200.777 186.529 201.293 186.543 201.721 186.559C202.153 186.575 202.462 186.594 202.646 186.616C203.208 186.68 203.703 186.867 204.13 187.175C204.563 187.484 204.896 187.97 205.128 188.636L205.98 191.078L206.799 191.962C207.081 192.265 207.294 192.568 207.44 192.871C207.586 193.174 207.687 193.501 207.741 193.852C207.795 194.204 207.822 194.607 207.822 195.061V200.481C207.822 200.784 207.719 201.038 207.513 201.243C207.308 201.449 207.054 201.552 206.751 201.552H205.793C205.491 201.552 205.236 201.449 205.031 201.243C204.825 201.038 204.723 200.784 204.723 200.481V199.304H191.734V200.481C191.734 200.784 191.628 201.038 191.417 201.243C191.212 201.449 190.958 201.552 190.655 201.552H189.705C189.397 201.552 189.14 201.449 188.935 201.243C188.729 201.038 188.626 200.784 188.626 200.481ZM192.699 191.118H203.749C203.944 191.118 204.076 191.056 204.147 190.932C204.217 190.807 204.22 190.656 204.155 190.477L203.644 188.96C203.552 188.684 203.427 188.49 203.27 188.376C203.113 188.262 202.913 188.189 202.67 188.157C202.389 188.119 201.867 188.087 201.104 188.06C200.342 188.033 199.382 188.019 198.224 188.019C197.067 188.019 196.104 188.033 195.336 188.06C194.573 188.087 194.051 188.119 193.77 188.157C193.527 188.189 193.327 188.262 193.17 188.376C193.013 188.49 192.888 188.684 192.796 188.96L192.293 190.477C192.234 190.656 192.237 190.807 192.302 190.932C192.366 191.056 192.499 191.118 192.699 191.118ZM191.563 196.189C191.812 196.189 192.018 196.108 192.18 195.945C192.342 195.783 192.423 195.578 192.423 195.329V194.063C192.423 193.809 192.342 193.604 192.18 193.447C192.018 193.29 191.812 193.211 191.563 193.211C191.315 193.211 191.106 193.293 190.939 193.455C190.776 193.612 190.695 193.814 190.695 194.063V195.329C190.695 195.578 190.776 195.783 190.939 195.945C191.106 196.108 191.315 196.189 191.563 196.189ZM196.382 195.799H200.041C200.241 195.799 200.404 195.737 200.528 195.613C200.653 195.488 200.715 195.318 200.715 195.102V194.282C200.715 194.071 200.653 193.906 200.528 193.787C200.404 193.663 200.241 193.601 200.041 193.601H196.382C196.182 193.601 196.02 193.663 195.896 193.787C195.777 193.906 195.717 194.071 195.717 194.282V195.102C195.717 195.318 195.777 195.488 195.896 195.613C196.02 195.737 196.182 195.799 196.382 195.799ZM204.966 196.189C205.22 196.189 205.428 196.108 205.591 195.945C205.753 195.783 205.834 195.578 205.834 195.329V194.063C205.834 193.809 205.753 193.604 205.591 193.447C205.428 193.29 205.22 193.211 204.966 193.211C204.723 193.211 204.517 193.293 204.349 193.455C204.187 193.612 204.106 193.814 204.106 194.063V195.329C204.106 195.572 204.187 195.778 204.349 195.945C204.517 196.108 204.723 196.189 204.966 196.189Z" fill="#2C2E4B"/>
</svg>
