<svg width="212" height="196" viewBox="0 0 212 196" fill="none" xmlns="http://www.w3.org/2000/svg">
<path d="M177.601 152.649C177.251 153.163 176.331 153.774 175.972 154.278L176.355 153.118L176.224 152.849L175.41 151.22L154.67 109.423L154.662 109.415L119.504 38.5948V38.5868L118.698 36.9659V36.9579L101.299 1.90613L100.477 0.244141C101.096 0.260495 101.715 0.285041 102.334 0.317749L103.165 1.9877L120.515 36.9579L120.523 36.9659L121.33 38.5868V38.5948L155.591 107.615V107.623L156.397 109.244V109.252L177.137 151.016L177.413 151.577L177.601 152.649Z" fill="#B3B3B3"/>
<path d="M175.288 38.5943H20.0781C20.4939 38.0485 20.9171 37.5027 21.3568 36.9648H174.009C174.449 37.5027 174.872 38.0485 175.288 38.5943Z" fill="#B3B3B3"/>
<path d="M25.9888 31.5977V162.684C25.4271 162.089 24.8892 161.486 24.3594 160.884V33.3976C24.8892 32.7923 25.4271 32.1925 25.9888 31.5977Z" fill="#B3B3B3"/>
<path d="M176.735 151.219H25.1719V152.848H176.735V151.219Z" fill="#B3B3B3"/>
<path d="M176.609 152.649H176.797V152.38C176.74 152.473 176.677 152.563 176.609 152.649ZM175.355 38.3954C174.94 37.8496 174.516 37.3038 174.077 36.7659C165.425 25.9092 154.555 17.0237 142.195 10.7032C129.835 4.38268 116.268 0.77258 102.401 0.114086C101.782 0.0813779 101.163 0.0568499 100.544 0.0404958C99.6153 0.0159648 98.6862 1.37669e-05 97.7497 1.37669e-05C84.2778 -0.0071467 70.9507 2.77901 58.6099 8.18256C46.269 13.5861 35.1826 21.4897 26.0505 31.3942C25.4888 31.9891 24.9509 32.592 24.4211 33.1948C23.3867 34.3596 22.3875 35.549 21.4234 36.7629C20.9837 37.3007 20.5605 37.8465 20.1447 38.3923C6.37864 56.3389 -0.722033 78.5122 0.0580629 101.117C0.838159 123.722 9.45051 145.353 24.4211 162.308C24.9503 162.911 25.4881 163.514 26.0499 164.108C35.8941 174.769 47.9913 183.101 61.461 188.498C74.9308 193.896 89.4343 196.222 103.916 195.308C118.398 194.395 132.495 190.264 145.179 183.217C157.864 176.169 168.818 166.383 177.244 154.569C177.603 154.064 177.961 153.559 178.311 153.046C187.345 139.958 193.022 124.85 194.841 109.052C194.915 108.514 194.972 107.968 195.02 107.422C195.338 104.245 195.498 101.022 195.501 97.7532C195.525 76.2851 188.442 55.4128 175.356 38.3942L175.355 38.3954ZM193.201 109.053C191.428 124.217 186.036 138.734 177.48 151.379C177.26 151.713 177.032 152.047 176.795 152.381C176.738 152.474 176.676 152.564 176.608 152.649C176.551 152.739 176.486 152.828 176.421 152.918C168.112 164.791 157.222 174.629 144.569 181.694C131.916 188.76 117.828 192.869 103.36 193.714C88.8929 194.558 74.422 192.117 61.0325 186.573C47.6431 181.028 35.6825 172.525 26.0475 161.699C25.4857 161.08 24.9399 160.461 24.418 159.826C10.0948 142.95 2.04841 121.64 1.64312 99.5083C1.23783 77.3769 8.49854 55.7864 22.1943 38.3972C22.6236 37.8514 23.0577 37.3056 23.5054 36.7684C23.7992 36.4004 24.1003 36.0435 24.418 35.6847C24.9393 35.0494 25.4851 34.43 26.0475 33.8112C35.0462 23.6858 46.089 15.5829 58.4478 10.0367C70.8065 4.49054 84.2005 1.62704 97.7467 1.63502C98.9605 1.63502 100.167 1.65955 101.365 1.70861C101.992 1.72517 102.612 1.75767 103.231 1.79017C116.487 2.54731 129.443 6.0465 141.278 12.0665C153.114 18.0865 163.572 26.4965 171.991 36.7647C172.439 37.3025 172.871 37.8484 173.302 38.3936C188.673 57.9394 195.873 82.6806 193.39 107.422C193.333 107.968 193.276 108.514 193.203 109.052L193.201 109.053ZM176.608 152.649H176.795V152.381C176.738 152.474 176.676 152.564 176.608 152.649Z" fill="#2C2E4B"/>
<path d="M180.54 46.7639C163.646 43.3793 146.699 40.3086 129.546 38.4295C113.282 36.5165 96.8806 36.0423 80.533 37.0122C65.7691 38.0082 50.8789 40.3436 37.0092 45.6668C26.3218 49.769 14.9315 55.976 9.15634 66.3262C3.59153 76.3036 5.7619 87.8099 11.8216 97.0158C19.1122 108.092 30.4816 115.683 42.3011 121.23C55.7593 127.547 70.154 131.641 84.5671 135.123C91.8772 136.889 106.583 140.126 113.93 141.714C115.464 142.046 117.186 140.332 115.648 139.997C100.825 136.794 77.5396 131.299 63.0855 126.663C49.7094 122.37 36.0212 116.876 25.0676 107.867C16.2059 100.578 7.78079 89.9318 8.30391 77.8276C8.83132 65.6234 19.0686 57.1056 29.103 51.8621C41.6431 45.3087 55.8906 42.1166 69.8511 40.4478C85.8365 38.6664 101.957 38.4471 117.985 39.7929C139.406 41.4229 160.51 45.2038 181.534 49.4391" fill="#2C2E4B"/>
<path d="M196.921 52.7236C189.825 47.7262 181.034 45.7521 172.483 47.2357C163.932 48.7194 156.32 53.5392 151.323 60.6349C140.916 75.4149 130.472 114.161 137.845 136.608C159.831 113.385 193.608 110.973 204.834 98.3201C216.829 84.8035 211.697 63.1297 196.921 52.7236Z" fill="#CA7C4C"/>
<path d="M177.634 86.1855C183.528 86.1855 188.306 81.4071 188.306 75.5127C188.306 69.6182 183.528 64.8398 177.634 64.8398C171.739 64.8398 166.961 69.6182 166.961 75.5127C166.961 81.4071 171.739 86.1855 177.634 86.1855Z" fill="#F9F7F2"/>
<path d="M128.818 148.234C132.679 148.234 135.808 145.105 135.808 141.244C135.808 137.383 132.679 134.254 128.818 134.254C124.958 134.254 121.828 137.383 121.828 141.244C121.828 145.105 124.958 148.234 128.818 148.234Z" fill="#CA7C4C"/>
<path d="M94.5273 71.9364C93.1182 71.9365 91.7407 71.5187 90.569 70.7359C89.3973 69.9531 88.4841 68.8405 87.9448 67.5386C87.4055 66.2368 87.2643 64.8042 87.5392 63.4222C87.8141 62.0401 88.4926 60.7706 89.489 59.7742C90.4854 58.7778 91.7549 58.0992 93.137 57.8244C94.519 57.5495 95.9515 57.6906 97.2534 58.2299C98.5552 58.7692 99.6679 59.6825 100.451 60.8542C101.233 62.0259 101.651 63.4034 101.651 64.8125C101.649 66.7012 100.898 68.5119 99.5621 69.8473C98.2266 71.1828 96.416 71.9341 94.5273 71.9364Z" fill="#2C2E4B"/>
<path d="M76.4445 113.701C75.6514 113.7 74.8741 113.479 74.1994 113.062C73.5248 112.645 72.9794 112.049 72.6243 111.34C72.2692 110.631 72.1184 109.837 72.1887 109.047C72.259 108.257 72.5477 107.502 73.0225 106.867L84.4207 91.596C84.7548 91.1417 85.1754 90.7579 85.6584 90.4668C86.1414 90.1758 86.6773 89.9832 87.2351 89.9001C87.7928 89.8171 88.3615 89.8452 88.9084 89.9829C89.4553 90.1206 89.9695 90.3652 90.4214 90.7025C90.8733 91.0398 91.254 91.4632 91.5416 91.9483C91.8291 92.4334 92.0179 92.9707 92.0969 93.529C92.1759 94.0874 92.1437 94.6559 92.002 95.2017C91.8604 95.7476 91.6121 96.26 91.2716 96.7095L79.8727 111.98C79.4752 112.515 78.9581 112.948 78.3628 113.247C77.7675 113.546 77.1106 113.701 76.4445 113.701Z" fill="#2C2E4B"/>
<path d="M103.077 114.683C102.283 114.684 101.504 114.463 100.828 114.046C100.152 113.628 99.6057 113.031 99.2505 112.32L93.8617 101.541L85.8033 93.4825C85.3218 93.0011 84.9622 92.4117 84.7545 91.7632C84.5468 91.1147 84.497 90.426 84.6093 89.7544L87.4592 72.6563C87.6519 71.5439 88.2768 70.5529 89.1976 69.8996C90.1184 69.2464 91.2602 68.9839 92.3738 69.1695C93.4874 69.3552 94.4823 69.9738 95.1414 70.8904C95.8005 71.807 96.0702 72.9472 95.8916 74.0619L93.4036 88.9934L100.395 95.9847C100.72 96.3095 100.99 96.6845 101.196 97.0953L106.897 108.496C107.222 109.148 107.376 109.872 107.343 110.599C107.31 111.327 107.092 112.034 106.71 112.654C106.327 113.273 105.793 113.785 105.157 114.14C104.521 114.496 103.806 114.683 103.077 114.683Z" fill="#2C2E4B"/>
<path d="M108.777 89.0373C108.317 89.0369 107.86 88.9624 107.424 88.8165L98.8755 85.9666C98.246 85.7567 97.6741 85.4031 97.205 84.9338L90.367 78.0964L82.9201 79.9583L78.1366 87.1336C77.5077 88.077 76.5298 88.7319 75.418 88.9543C74.3063 89.1767 73.1517 88.9483 72.2084 88.3194C71.265 87.6905 70.6101 86.7126 70.3877 85.6009C70.1654 84.4891 70.3937 83.3346 71.0226 82.3912L76.7217 73.8421C77.3111 72.9563 78.2096 72.3222 79.2417 72.0636L90.6417 69.2156C91.3578 69.0365 92.1081 69.0459 92.8194 69.2429C93.5308 69.4399 94.179 69.8178 94.701 70.3397L102.537 78.1755L110.128 80.7059C111.091 81.0269 111.908 81.68 112.434 82.5482C112.959 83.4164 113.158 84.4432 112.996 85.445C112.834 86.4467 112.321 87.3581 111.548 88.0161C110.775 88.6741 109.794 89.0359 108.779 89.0366L108.777 89.0373Z" fill="#2C2E4B"/>
</svg>
