<svg width="364" height="230" viewBox="0 0 364 230" fill="none" xmlns="http://www.w3.org/2000/svg">
<g clip-path="url(#clip0_2045_29857)">
<path d="M321.782 151.929C320.019 167.024 316.355 179.143 311.327 188.808C304.636 201.686 293.191 206.875 282.966 212.304C280.012 213.87 276.941 215.205 273.779 216.296C255.175 222.749 234.352 221.037 217.995 217.63C206.523 215.239 194.878 213.767 183.171 213.23C179.832 213.08 176.49 213.005 173.144 213.006C167.985 213.013 75.0951 214.775 52.4789 169.02C46.8951 157.733 43.0677 143.946 41.6927 127.14C37.8018 79.6259 59.1868 48.4204 86.7712 28.0235C138.952 -10.5604 210.478 -8.94229 261.889 30.658C296.135 57.0359 328.199 96.9571 321.782 151.929Z" fill="#2C2E4B"/>
<path d="M311.329 188.808C304.637 201.686 295.534 210.218 285.31 215.647C282.356 217.213 279.284 218.548 276.123 219.639C257.518 226.091 236.695 224.38 220.339 220.973C208.866 218.581 197.221 217.11 185.514 216.573C182.176 216.423 178.833 216.348 175.488 216.349C170.329 216.356 165.171 216.548 160.014 216.924C126.502 219.385 75.0966 214.775 52.4805 169.02L109.068 59.4961L130.128 113.529L136.85 130.777L155.374 105.375L164.939 92.2595L208.499 142.164L220.81 114.993L306.049 184.505L310.803 188.38L311.329 188.808Z" fill="#F9F7F2"/>
<path opacity="0.1" d="M101.035 94.5992L109.734 75.543L121.778 103.292L111.406 83.2323L101.035 94.5992Z" fill="black"/>
<path opacity="0.1" d="M185.513 216.574C182.174 216.424 178.831 216.349 175.486 216.35L136.848 130.777L185.513 216.574Z" fill="black"/>
<path opacity="0.1" d="M155.371 105.375L164.936 97.9434L208.428 148.091L164.267 105.298L155.371 105.375Z" fill="black"/>
<path opacity="0.1" d="M285.307 215.648C282.353 217.214 279.281 218.548 276.12 219.64L208.496 142.164L285.307 215.648Z" fill="black"/>
<path d="M161.258 35.0919C161.812 35.0919 162.261 34.6428 162.261 34.0889C162.261 33.535 161.812 33.0859 161.258 33.0859C160.703 33.0859 160.254 33.535 160.254 34.0889C160.254 34.6428 160.703 35.0919 161.258 35.0919Z" fill="#F9F7F2"/>
<path d="M133.488 69.5255C134.042 69.5255 134.492 69.0764 134.492 68.5225C134.492 67.9686 134.042 67.5195 133.488 67.5195C132.934 67.5195 132.484 67.9686 132.484 68.5225C132.484 69.0764 132.934 69.5255 133.488 69.5255Z" fill="#F9F7F2"/>
<path d="M201.403 75.2103C201.773 75.2103 202.073 74.911 202.073 74.5417C202.073 74.1724 201.773 73.873 201.403 73.873C201.034 73.873 200.734 74.1724 200.734 74.5417C200.734 74.911 201.034 75.2103 201.403 75.2103Z" fill="#F9F7F2"/>
<path d="M60.8879 90.2533C61.2574 90.2533 61.557 89.9539 61.557 89.5847C61.557 89.2154 61.2574 88.916 60.8879 88.916C60.5183 88.916 60.2188 89.2154 60.2188 89.5847C60.2188 89.9539 60.5183 90.2533 60.8879 90.2533Z" fill="#F9F7F2"/>
<path d="M205.419 33.7533C205.789 33.7533 206.088 33.4539 206.088 33.0847C206.088 32.7154 205.789 32.416 205.419 32.416C205.05 32.416 204.75 32.7154 204.75 33.0847C204.75 33.4539 205.05 33.7533 205.419 33.7533Z" fill="#F9F7F2"/>
<path d="M246.903 65.849C247.273 65.849 247.573 65.5496 247.573 65.1804C247.573 64.8111 247.273 64.5117 246.903 64.5117C246.534 64.5117 246.234 64.8111 246.234 65.1804C246.234 65.5496 246.534 65.849 246.903 65.849Z" fill="#F9F7F2"/>
<path d="M287.72 116.665C288.089 116.665 288.389 116.366 288.389 115.997C288.389 115.627 288.089 115.328 287.72 115.328C287.35 115.328 287.051 115.627 287.051 115.997C287.051 116.366 287.35 116.665 287.72 116.665Z" fill="#F9F7F2"/>
<path d="M102.373 40.5262H101.45V39.6035H100.955V40.5262H100.031V41.0214H100.955V41.9438H101.45V41.0214H102.373V40.5262Z" fill="#F9F7F2"/>
<path d="M283.705 141.827H282.782V140.904H282.287V141.827H281.363V142.322H282.287V143.245H282.782V142.322H283.705V141.827Z" fill="#F9F7F2"/>
<g clip-path="url(#clip1_2045_29857)">
<path d="M289.359 123.244V93.263C289.359 90.2736 291.788 87.8418 294.774 87.8418H314.362C317.347 87.8418 319.776 90.2736 319.776 93.263V123.244C319.776 126.233 317.347 128.665 314.362 128.665H294.774C291.788 128.665 289.359 126.233 289.359 123.244Z" fill="#CA7C4C"/>
<path d="M299.391 100.801H309.746V98.2089H299.391V100.801Z" fill="#2C2E4B"/>
<path d="M301.979 96.2656H307.156V87.8419H301.979V96.2656Z" fill="#2C2E4B"/>
<path d="M301.979 128.664H307.156V120.24H301.979V128.664Z" fill="#2C2E4B"/>
<path d="M275.443 124.455H245.5C242.515 124.455 240.086 122.023 240.086 119.034V99.4212C240.086 96.4318 242.515 94 245.5 94H275.443C278.428 94 280.857 96.4318 280.857 99.4212V119.034C280.857 122.023 278.428 124.455 275.443 124.455Z" fill="#CA7C4C"/>
<path d="M266.296 98.2109H255.941V100.803H266.296V98.2109Z" fill="#2C2E4B"/>
<path d="M248.5 111.819V106.635H240.087V111.819H248.5Z" fill="#2C2E4B"/>
<path d="M280.859 111.819V106.635H272.446V111.819H280.859Z" fill="#2C2E4B"/>
<path d="M32.5574 180.519L27.5588 151.323C25.3377 138.35 34.9274 126.345 48.0556 125.664L119.316 121.969L136.323 93.903C138.577 90.1823 142.609 87.9102 146.955 87.9102H198.158C202.182 87.9102 205.583 90.8986 206.105 94.8943L207.406 117.351L335.059 117.734L351.117 170.723L336.212 169.995L336.976 186.067L317.484 186.833L310.986 168.437C309.763 164.973 304.401 161.067 298.829 157.799C286.336 150.473 270.286 152.824 260.831 163.803C258.601 166.393 257.042 169.091 256.606 171.622L253.657 188.746L110.716 186.45L91.9825 160.211C86.4478 154.181 60.3202 151.965 57.9672 160.211L43.8322 181.093L32.5574 180.519Z" fill="#E5D1BF"/>
<path d="M187.919 104.987L192.125 124.838L138.617 125.986L149.918 101.691C150.943 99.4872 153.194 98.1188 155.62 98.2245L181.26 99.3407C184.506 99.482 187.245 101.804 187.919 104.987Z" fill="#2C2E4B"/>
<path d="M131.352 124.456L142.053 96.903L139.251 94.0977L121.797 120.629L125.343 125.987L131.352 124.456Z" fill="#F9F7F2"/>
<path d="M284.616 214.002C298.547 214.002 309.84 202.694 309.84 188.745C309.84 174.796 298.547 163.488 284.616 163.488C270.684 163.488 259.391 174.796 259.391 188.745C259.391 202.694 270.684 214.002 284.616 214.002Z" fill="#2C2E4B"/>
<path d="M267.223 188.746C267.223 179.145 275.024 171.334 284.613 171.334C294.201 171.334 302.002 179.145 302.002 188.746C302.002 198.347 294.201 206.158 284.613 206.158C275.024 206.158 267.223 198.347 267.223 188.746ZM267.605 188.746C267.605 198.136 275.234 205.775 284.613 205.775C293.991 205.775 301.62 198.136 301.62 188.746C301.62 179.356 293.991 171.717 284.613 171.717C275.234 171.717 267.605 179.356 267.605 188.746Z" fill="#F9F7F2"/>
<path d="M269.707 188.745C269.707 196.987 276.38 203.669 284.613 203.669C292.845 203.669 299.518 196.987 299.518 188.745C299.518 180.502 292.845 173.82 284.613 173.82C276.38 173.82 269.707 180.502 269.707 188.745ZM294.302 185.171L291.661 186.894L290.646 185.336L294.302 185.171ZM290.281 193.936L290.985 192.214L293.199 195.131L290.281 193.936ZM283.519 199.843L285.377 196.686V199.843H283.519ZM283.519 181.569L285.377 178.412V181.569H283.519ZM275.262 195.131L277.476 192.214L278.18 193.936L275.262 195.131ZM274.159 185.171L277.815 185.336L276.8 186.894L274.159 185.171Z" fill="#E5D1BF"/>
<path d="M72.8772 214.002C86.8086 214.002 98.1021 202.694 98.1021 188.745C98.1021 174.796 86.8086 163.488 72.8772 163.488C58.9459 163.488 47.6523 174.796 47.6523 188.745C47.6523 202.694 58.9459 214.002 72.8772 214.002Z" fill="#2C2E4B"/>
<path d="M55.4883 188.746C55.4883 179.145 63.2893 171.334 72.8782 171.334C82.467 171.334 90.2681 179.145 90.2681 188.746C90.2681 198.347 82.467 206.158 72.8782 206.158C63.2893 206.158 55.4883 198.347 55.4883 188.746ZM55.8705 188.746C55.8705 198.136 63.5 205.775 72.8782 205.775C82.2563 205.775 89.8859 198.136 89.8859 188.746C89.8859 179.356 82.2563 171.717 72.8782 171.717C63.5 171.717 55.8705 179.356 55.8705 188.746Z" fill="#F9F7F2"/>
<path d="M57.9727 188.745C57.9727 196.987 64.6461 203.669 72.8783 203.669C81.1104 203.669 87.7839 196.987 87.7839 188.745C87.7839 180.502 81.1104 173.82 72.8783 173.82C64.6461 173.82 57.9727 180.502 57.9727 188.745ZM82.5674 185.171L79.9264 186.894L78.9118 185.336L82.5674 185.171ZM78.5468 193.936L79.2501 192.214L81.4647 195.131L78.5468 193.936ZM71.7844 199.843L73.6427 196.686V199.843H71.7844ZM71.7844 181.569L73.6427 178.412V181.569H71.7844ZM63.5275 195.131L65.742 192.214L66.4453 193.936L63.5275 195.131ZM62.4247 185.171L66.0804 185.336L65.0657 186.894L62.4247 185.171Z" fill="#E5D1BF"/>
<path d="M178.172 134.979H192.695V131.917H178.172V134.979Z" fill="#2C2E4B"/>
<path d="M0 214.143C0 214.395 0.353638 214.598 0.794015 214.598H379.844C380.284 214.598 380.638 214.395 380.638 214.143C380.638 213.89 380.284 213.688 379.844 213.688H0.794015C0.353638 213.688 0 213.89 0 214.143Z" fill="#E5D1BF"/>
<path d="M28.9208 172.457C34.62 172.457 39.2401 168.43 39.2401 163.464C39.2401 158.497 34.62 154.471 28.9208 154.471C23.2217 154.471 18.6016 158.497 18.6016 163.464C18.6016 168.43 23.2217 172.457 28.9208 172.457Z" fill="#E5D1BF"/>
</g>
</g>
<defs>
<clipPath id="clip0_2045_29857">
<rect width="364" height="230" fill="white"/>
</clipPath>
<clipPath id="clip1_2045_29857">
<rect width="384" height="161" fill="white" transform="translate(0 54)"/>
</clipPath>
</defs>
</svg>
