<svg width="403" height="222" viewBox="0 0 403 222" fill="none" xmlns="http://www.w3.org/2000/svg">
<path d="M275.723 23.166C276.474 23.1661 277.13 23.3438 277.581 23.6055C278.045 23.8745 278.206 24.1722 278.206 24.3975C278.206 24.6228 278.045 24.9213 277.581 25.1904C277.13 25.4521 276.474 25.6298 275.723 25.6299C274.971 25.6299 274.314 25.4522 273.863 25.1904C273.4 24.9213 273.238 24.6228 273.238 24.3975C273.239 24.1722 273.4 23.8745 273.863 23.6055C274.314 23.3437 274.971 23.166 275.723 23.166Z" fill="#EBE3D9" stroke="#E5C3AC"/>
<path d="M139.336 191.25C140.087 191.25 140.743 191.428 141.194 191.689C141.658 191.958 141.819 192.256 141.819 192.481C141.819 192.707 141.658 193.005 141.194 193.274C140.743 193.536 140.087 193.714 139.336 193.714C138.584 193.714 137.928 193.536 137.477 193.274C137.013 193.005 136.852 192.707 136.852 192.481C136.852 192.256 137.013 191.958 137.477 191.689C137.928 191.428 138.584 191.25 139.336 191.25Z" fill="#EBE3D9" stroke="#E5C3AC"/>
<path d="M310.895 203.068V210.668" stroke="#E5C3AC" stroke-linecap="round" stroke-linejoin="round"/>
<path d="M304.316 206.867H317.44" stroke="#E5C3AC" stroke-linecap="round" stroke-linejoin="round"/>
<path d="M84.7734 45.7637V53.3628" stroke="#E5C3AC" stroke-linecap="round" stroke-linejoin="round"/>
<path d="M78.1953 49.5645H91.3191" stroke="#E5C3AC" stroke-linecap="round" stroke-linejoin="round"/>
<path d="M357.359 66.4414V74.0406" stroke="#E5C3AC" stroke-linecap="round" stroke-linejoin="round"/>
<path d="M350.777 70.2422H363.901" stroke="#E5C3AC" stroke-linecap="round" stroke-linejoin="round"/>
<path fill-rule="evenodd" clip-rule="evenodd" d="M122.648 11.8564C122.452 12.4202 122.194 15.0402 122.074 17.6793L121.858 22.4777L117.929 22.8776L114 23.2774V37.6727V52.068L116.554 52.3183L119.108 52.5694V120.439C119.108 181.073 119.24 188.443 120.342 189.566C121.343 190.584 123.589 190.822 132.181 190.822C138.013 190.822 143.469 190.45 144.305 189.995C145.789 189.186 145.825 187.575 145.825 120.868V52.5694L148.379 52.3183C150.495 52.1112 151.061 51.6225 151.684 49.4688L152.436 46.8697H180.048C205.977 46.8697 207.74 46.96 208.983 48.358C209.711 49.1769 211.711 50.4917 213.427 51.2786L216.547 52.711V64.5854V76.4599H211.896C204.738 76.4599 204.76 76.4375 204.76 83.9958V90.5609L200.37 92.4123L195.981 94.2637L191.898 90.1602C185.97 84.2022 185.517 84.3365 175.053 95.1306C170.214 100.122 166.256 104.699 166.256 105.304C166.256 105.909 168.199 108.403 170.575 110.846L174.894 115.288L173.129 119.865L171.363 124.441L165.43 124.443C161.866 124.443 159.121 124.827 158.555 125.404C158.011 125.957 157.612 128.608 157.612 131.667C157.612 136.479 157.433 137.067 155.683 138.02C152.03 140.009 151.325 143.109 151.325 157.18C151.325 171.307 152.011 174.476 155.581 176.856C157.437 178.094 157.612 178.681 157.612 183.689C157.612 188.286 157.856 189.3 159.131 189.995C159.968 190.45 164.716 190.822 169.684 190.822C180.642 190.822 181.186 190.479 181.186 183.568V178.826H220.868H260.551V183.997C260.551 188.256 260.814 189.31 262.043 189.979C263.884 190.981 279.656 190.992 282.24 189.991C283.966 189.324 284.125 188.818 284.125 183.991C284.125 179.001 284.273 178.577 286.875 176.079L289.626 173.439V157.488V141.538L287.465 139.446C286.277 138.296 284.331 137.11 283.143 136.81C281.05 136.284 280.982 136.095 280.982 130.841C280.982 124.461 280.961 124.445 272.863 124.443L267.23 124.442L265.458 120.014L263.685 115.586L268.012 111.288C270.391 108.923 272.338 106.362 272.338 105.597C272.338 103.885 255.499 86.3623 253.288 85.7745C252.116 85.4626 250.484 86.5262 247.119 89.7923L242.543 94.2349L238.188 92.3979L233.834 90.5609V84.4701C233.834 80.7993 233.459 77.9978 232.891 77.4196C232.357 76.8758 229.796 76.4599 226.976 76.4599H222.005L222.222 64.7342L222.44 53.0085L225.583 51.2226C230.898 48.2028 233.325 44.4169 233.649 38.6428C233.979 32.7655 232.523 29.4378 227.981 25.6966C225.312 23.4982 224.514 22.4777 219.297 22.4777C213.997 22.4777 213.322 23.4766 210.387 25.8766L207.209 28.4757H179.822H152.436L151.684 25.8766C150.991 23.4774 150.63 23.2471 147.003 22.8776L143.074 22.4777L142.682 16.8796L142.289 11.2814L132.647 11.0567C125.359 10.8871 122.919 11.0823 122.648 11.8564ZM128.074 17.5793C127.828 18.2303 127.744 19.5987 127.886 20.6199C128.121 22.3066 128.542 22.4777 132.466 22.4777H136.788V19.6786V16.8796L132.654 16.6372C129.568 16.4565 128.407 16.6956 128.074 17.5793ZM119.446 29.5322C119.226 30.1136 119.149 34.1619 119.274 38.5292L119.501 46.4698H132.466H145.432L145.654 37.4728L145.877 28.4757H132.86C122.799 28.4757 119.754 28.7157 119.446 29.5322ZM214.975 30.2376C208.621 34.6097 209.8 43.6715 217.039 46.1035C222.899 48.0717 229.518 41.3515 227.587 35.3959C225.616 29.3179 219.781 26.9314 214.975 30.2376ZM152.111 37.6727V40.4718H178.435H204.76V37.6727V34.8736H178.435H152.111V37.6727ZM216.547 37.6727C216.547 40.3382 216.678 40.4718 219.297 40.4718C221.916 40.4718 222.047 40.3382 222.047 37.6727C222.047 35.0072 221.916 34.8736 219.297 34.8736C216.678 34.8736 216.547 35.0072 216.547 37.6727ZM125.394 57.9164V63.3658L131.681 68.9128C135.14 71.9646 138.322 74.5806 138.753 74.7269C139.252 74.8965 139.538 70.8754 139.538 63.7305V52.4678H132.466H125.394V57.9164ZM125.394 82.4883C125.394 94.9954 124.493 94.4844 133.151 86.8861L138.157 82.4931L134.722 79.4318C132.833 77.7491 129.962 75.2811 128.341 73.9496L125.394 71.5272V82.4883ZM210.097 88.951L209.867 95.0442L202.795 98.1456C198.905 99.8522 195.38 101.249 194.961 101.249C194.543 101.251 192.331 99.3732 190.047 97.0771L185.893 92.9017L180.003 98.8566C176.764 102.131 174.113 105.033 174.113 105.306C174.113 105.578 175.882 107.678 178.042 109.971C180.203 112.265 181.971 114.44 181.971 114.805C181.971 115.169 180.892 117.937 179.572 120.956C175.042 131.312 176.004 130.413 169.175 130.676L163.112 130.909V133.675V136.44H173.619H184.126L184.635 132.541C185.748 123.999 193.303 113.196 201.636 108.229C207.149 104.943 214.299 103.383 221.654 103.865C232.568 104.578 241.238 109.356 247.617 118.175C250.918 122.74 254.265 131.005 254.265 134.596C254.265 136.431 254.32 136.44 264.873 136.44H275.481V133.675V130.909L269.419 130.676C263.828 130.461 263.284 130.286 262.43 128.443C261.921 127.343 260.336 123.831 258.907 120.637L256.311 114.831L259.806 111.056C261.728 108.98 263.567 107.154 263.891 106.999C265.326 106.312 264.095 104.421 258.591 98.8566L252.7 92.9017L248.547 97.0771C246.262 99.3732 244.05 101.251 243.632 101.249C243.213 101.249 239.688 99.8522 235.799 98.1456L228.726 95.0442L228.497 88.951L228.268 82.8578H219.297H210.326L210.097 88.951ZM133.001 95.2034C129.621 98.2048 127.146 100.906 127.5 101.208C127.854 101.509 130.539 103.853 133.467 106.416C136.394 108.98 138.969 110.895 139.189 110.672C139.408 110.449 139.487 105.65 139.366 100.007L139.146 89.7476L133.001 95.2034ZM125.394 118.496C125.394 128.883 125.47 129.426 126.769 128.312C127.525 127.663 130.389 125.183 133.133 122.801L138.122 118.468L135.795 116.458C134.515 115.352 131.651 112.885 129.431 110.974L125.394 107.501V118.496ZM214.656 110.087C202.996 112.097 193.262 121.439 190.736 133.041L189.997 136.44H219.395H248.794L248.267 134.241C246.534 127.02 243.015 120.794 238.462 116.895C235.034 113.959 229.258 111.083 225.54 110.46C219.596 109.465 218.486 109.427 214.656 110.087ZM133.113 130.936C129.795 133.743 127.143 136.251 127.219 136.509C127.487 137.409 138.857 146.997 139.22 146.627C139.422 146.422 139.487 141.659 139.366 136.044L139.146 125.832L133.113 130.936ZM202.911 142.838L197.528 143.238L192.2 156.104C184.612 174.432 184.574 172.428 192.507 172.428C200.203 172.428 199.458 173.115 203.894 161.934C205.181 158.689 207.467 153.101 208.973 149.517C212.164 141.925 212.357 142.137 202.911 142.838ZM158.089 144.103C157.341 146.085 157.531 170.829 158.293 170.829C158.667 170.829 159.765 168.939 160.731 166.63C164.714 157.112 170.185 143.56 170.185 143.212C170.185 143.006 167.57 142.838 164.375 142.838C159.803 142.838 158.464 143.108 158.089 144.103ZM175.724 146.237C170.709 158.044 165.47 171.065 165.47 171.721C165.47 172.172 168.268 172.395 172.243 172.26L179.016 172.028L181.235 166.83C186.157 155.3 190.615 144.24 190.615 143.559C190.615 143.163 187.59 142.838 183.892 142.838H177.169L175.724 146.237ZM212.641 156.634C209.501 164.221 206.759 170.879 206.548 171.429C206.257 172.183 207.887 172.428 213.191 172.428H220.22L225.19 160.232C227.923 153.525 230.637 146.866 231.221 145.437L232.284 142.838H225.317H218.349L212.641 156.634ZM237.134 147.037C236.235 149.346 233.856 155.194 231.847 160.032C229.838 164.871 227.88 169.639 227.497 170.629C226.801 172.428 226.804 172.428 235.288 172.428H243.775L248.582 160.632C251.226 154.144 253.945 147.487 254.623 145.837L255.858 142.838H247.312H238.767L237.134 147.037ZM256.781 156.634C253.66 164.221 251.109 170.879 251.114 171.429C251.119 172.148 252.964 172.428 257.695 172.428H264.268L266.689 166.63C272.146 153.56 276.267 143.462 276.267 143.16C276.267 142.983 273.16 142.838 269.362 142.838H262.457L256.781 156.634ZM125.394 154.484C125.394 164.871 125.47 165.414 126.769 164.3C127.525 163.651 130.389 161.171 133.133 158.789L138.122 154.457L135.795 152.446C134.515 151.34 131.651 148.873 129.431 146.962L125.394 143.489V154.484ZM281.803 145.862C279.4 151.195 271.552 170.928 271.552 171.64C271.552 172.784 282.041 172.63 283.182 171.469C284.29 170.341 284.544 144.796 283.454 144.11C283.085 143.878 282.342 144.666 281.803 145.862ZM131.882 167.881L125.405 173.628L125.4 179.026L125.394 184.424H132.466H139.538V173.228C139.538 167.07 139.274 162.055 138.949 162.083C138.625 162.111 135.445 164.72 131.882 167.881ZM163.259 181.425L163.505 184.025L169.202 184.26L174.899 184.495V181.66V178.826H168.956H163.013L163.259 181.425ZM266.199 181.425L266.445 184.025L272.142 184.26L277.839 184.495V181.66V178.826H271.896H265.952L266.199 181.425Z" fill="#2C2E4B"/>
<path d="M290.243 100.656C287.43 99.421 284.27 99.2884 281.457 100.287C278.643 101.286 276.409 103.334 275.243 105.981C272.019 113.307 279.606 124.823 279.606 124.823C279.606 124.823 293.186 122.724 296.457 115.293C297.622 112.646 297.622 109.616 296.457 106.871C295.291 104.126 293.057 101.891 290.243 100.656ZM284.202 114.38C283.376 114.017 282.67 113.432 282.173 112.699C281.676 111.966 281.411 111.117 281.41 110.26C281.41 109.403 281.674 108.577 282.17 107.884C282.666 107.192 283.372 106.666 284.197 106.371C285.023 106.077 285.932 106.028 286.809 106.231C287.686 106.433 288.492 106.879 289.126 107.51C289.759 108.141 290.192 108.931 290.368 109.778C290.544 110.626 290.457 111.493 290.117 112.272C289.657 113.314 288.777 114.121 287.668 114.514C286.56 114.908 285.315 114.856 284.207 114.37L284.202 114.38Z" fill="#CA7C4C"/>
</svg>
