<svg width="370" height="253" viewBox="0 0 370 253" fill="none" xmlns="http://www.w3.org/2000/svg">
<g clip-path="url(#clip0_2045_30453)">
<path d="M217.765 61.3006H152.288C150.795 61.3024 149.365 61.8954 148.31 62.9496C147.255 64.0038 146.661 65.4331 146.659 66.924V212.328L145.909 212.556L129.846 217.471C129.085 217.703 128.263 217.624 127.56 217.251C126.857 216.877 126.331 216.241 126.098 215.481L78.3185 59.5423C78.086 58.7817 78.1652 57.9599 78.5388 57.2576C78.9124 56.5554 79.5498 56.03 80.3109 55.7971L105.064 48.2242L176.823 26.2777L201.575 18.7048C201.952 18.5889 202.348 18.5485 202.74 18.5857C203.132 18.6229 203.514 18.737 203.862 18.9216C204.21 19.1061 204.518 19.3574 204.769 19.6612C205.02 19.9649 205.208 20.3151 205.324 20.6917L217.537 60.5508L217.765 61.3006Z" fill="#E5C3AC"/>
<path d="M232.052 60.5511L217.333 12.5118C217.088 11.7114 216.687 10.967 216.155 10.3213C215.622 9.67548 214.967 9.14097 214.227 8.74825C213.487 8.35553 212.677 8.1123 211.843 8.03246C211.009 7.95263 210.168 8.03776 209.367 8.28298L174.566 18.9263L102.811 40.8765L68.0103 51.5236C66.3936 52.0196 65.04 53.1362 64.2464 54.6284C63.4529 56.1206 63.2844 57.8664 63.7778 59.4827L114.086 223.661C114.487 224.966 115.296 226.108 116.394 226.92C117.492 227.731 118.821 228.17 120.187 228.171C120.819 228.172 121.448 228.077 122.052 227.89L145.908 220.595L146.658 220.362V219.579L145.908 219.807L121.83 227.174C120.403 227.609 118.862 227.46 117.545 226.761C116.227 226.061 115.241 224.869 114.803 223.444L64.4983 59.2615C64.2811 58.5555 64.2054 57.8137 64.2756 57.0784C64.3457 56.3432 64.5603 55.629 64.9071 54.9767C65.2538 54.3245 65.726 53.747 66.2965 53.2773C66.8669 52.8076 67.5245 52.455 68.2316 52.2396L103.032 41.5926L174.788 19.6461L209.589 8.99904C210.125 8.8355 210.682 8.75212 211.243 8.7516C212.446 8.7543 213.617 9.14193 214.584 9.85771C215.551 10.5735 216.263 11.5798 216.616 12.7293L231.268 60.5511L231.501 61.3009H232.281L232.052 60.5511Z" fill="#2C2E4B"/>
<path d="M109.532 55.9198C108.809 55.9193 108.105 55.6873 107.524 55.2577C106.942 54.8281 106.514 54.2237 106.301 53.533L101.468 37.7604C101.338 37.3367 101.293 36.8916 101.336 36.4506C101.378 36.0095 101.507 35.581 101.715 35.1897C101.923 34.7984 102.206 34.4519 102.548 34.1699C102.89 33.888 103.285 33.6761 103.709 33.5465L169.723 13.3531C170.579 13.092 171.504 13.1811 172.295 13.6007C173.086 14.0204 173.678 14.7364 173.941 15.5915L178.773 31.3643C179.035 32.2199 178.945 33.1441 178.525 33.9342C178.105 34.7242 177.389 35.3155 176.533 35.5784L110.519 55.7717C110.199 55.8698 109.867 55.9197 109.532 55.9198Z" fill="#CA7C4C"/>
<path d="M134.848 24.8533C138.992 24.8533 142.352 21.4964 142.352 17.3554C142.352 13.2144 138.992 9.85742 134.848 9.85742C130.704 9.85742 127.344 13.2144 127.344 17.3554C127.344 21.4964 130.704 24.8533 134.848 24.8533Z" fill="#CA7C4C"/>
<path d="M134.846 22.1033C137.47 22.1033 139.598 19.9776 139.598 17.3553C139.598 14.7331 137.47 12.6074 134.846 12.6074C132.221 12.6074 130.094 14.7331 130.094 17.3553C130.094 19.9776 132.221 22.1033 134.846 22.1033Z" fill="#F9F7F2"/>
<path d="M289.612 226.255H162.791C161.945 226.254 161.135 225.918 160.537 225.321C159.939 224.723 159.603 223.914 159.602 223.069V71.2355C159.603 70.3906 159.939 69.5806 160.537 68.9832C161.135 68.3858 161.945 68.0498 162.791 68.0488H289.612C290.458 68.0498 291.268 68.3858 291.866 68.9832C292.464 69.5806 292.8 70.3906 292.801 71.2355V223.069C292.8 223.914 292.464 224.723 291.866 225.321C291.268 225.918 290.458 226.254 289.612 226.255Z" fill="#EBE3D9"/>
<path d="M231.267 60.5508H152.285C150.594 60.5532 148.973 61.2254 147.777 62.4201C146.581 63.6148 145.909 65.2345 145.906 66.924V219.807L146.657 219.578V66.924C146.658 65.4332 147.252 64.0039 148.307 62.9497C149.362 61.8954 150.793 61.3024 152.285 61.3006H231.499L231.267 60.5508ZM300.118 60.5508H152.285C150.594 60.5532 148.973 61.2254 147.777 62.4201C146.581 63.6148 145.909 65.2345 145.906 66.924V238.627C145.909 240.316 146.581 241.936 147.777 243.131C148.973 244.325 150.594 244.998 152.285 245H300.118C301.809 244.998 303.43 244.325 304.626 243.131C305.821 241.936 306.494 240.316 306.496 238.627V66.924C306.494 65.2345 305.821 63.6148 304.626 62.4201C303.43 61.2254 301.809 60.5532 300.118 60.5508ZM305.746 238.627C305.744 240.118 305.151 241.547 304.096 242.601C303.04 243.655 301.61 244.248 300.118 244.25H152.285C150.793 244.248 149.362 243.655 148.307 242.601C147.252 241.547 146.658 240.118 146.657 238.627V66.924C146.658 65.4332 147.252 64.0039 148.307 62.9497C149.362 61.8954 150.793 61.3024 152.285 61.3006H300.118C301.61 61.3024 303.04 61.8954 304.096 62.9497C305.151 64.0039 305.744 65.4332 305.746 66.924V238.627Z" fill="#2C2E4B"/>
<path d="M260.728 77.0463H191.689C190.794 77.0453 189.936 76.6895 189.303 76.057C188.67 75.4244 188.314 74.5668 188.312 73.6723V57.1768C188.314 56.2823 188.67 55.4246 189.303 54.7921C189.936 54.1595 190.794 53.8037 191.689 53.8027H260.728C261.623 53.8037 262.482 54.1595 263.115 54.7921C263.748 55.4246 264.104 56.2823 264.105 57.1768V73.6723C264.104 74.5668 263.748 75.4244 263.115 76.057C262.482 76.6895 261.623 77.0453 260.728 77.0463Z" fill="#CA7C4C"/>
<path d="M226.207 54.9275C230.352 54.9275 233.712 51.5706 233.712 47.4296C233.712 43.2886 230.352 39.9316 226.207 39.9316C222.063 39.9316 218.703 43.2886 218.703 47.4296C218.703 51.5706 222.063 54.9275 226.207 54.9275Z" fill="#CA7C4C"/>
<path d="M226.204 51.9962C228.728 51.9962 230.774 49.9515 230.774 47.4292C230.774 44.907 228.728 42.8623 226.204 42.8623C223.679 42.8623 221.633 44.907 221.633 47.4292C221.633 49.9515 223.679 51.9962 226.204 51.9962Z" fill="#F9F7F2"/>
</g>
<defs>
<clipPath id="clip0_2045_30453">
<rect width="243" height="237" fill="white" transform="translate(63.5 8)"/>
</clipPath>
</defs>
</svg>
